<svg width="181" height="122" viewBox="0 0 181 122" fill="none" xmlns="http://www.w3.org/2000/svg">
<g filter="url(#filter0_d_1_1863)">
<rect x="10" y="10.5" width="101" height="41" rx="8" fill="white"/>
</g>
<path d="M44.616 34.5L43.916 32.512H39.842L39.142 34.5H37.476L40.962 24.756H42.81L46.296 34.5H44.616ZM40.276 31.266H43.482L41.886 26.688L40.276 31.266ZM52.7537 32.54C53.2204 32.064 53.4537 31.4293 53.4537 30.636C53.4537 29.8427 53.2204 29.2127 52.7537 28.746C52.2964 28.2793 51.7504 28.046 51.1157 28.046C50.4811 28.046 49.9304 28.2747 49.4637 28.732C49.0064 29.1893 48.7777 29.8147 48.7777 30.608C48.7777 31.4013 49.0064 32.0407 49.4637 32.526C49.9304 33.002 50.4811 33.24 51.1157 33.24C51.7504 33.24 52.2964 33.0067 52.7537 32.54ZM50.7797 34.626C49.7531 34.626 48.8897 34.2527 48.1897 33.506C47.4897 32.75 47.1397 31.7887 47.1397 30.622C47.1397 29.446 47.4851 28.494 48.1757 27.766C48.8757 27.0287 49.7437 26.66 50.7797 26.66C51.3864 26.66 51.9184 26.8 52.3757 27.08C52.8424 27.3507 53.2017 27.71 53.4537 28.158V24.14H55.0637V34.5H53.4537V33.058C53.1924 33.534 52.8331 33.9167 52.3757 34.206C51.9184 34.486 51.3864 34.626 50.7797 34.626ZM62.102 32.54C62.5687 32.064 62.802 31.4293 62.802 30.636C62.802 29.8427 62.5687 29.2127 62.102 28.746C61.6447 28.2793 61.0987 28.046 60.464 28.046C59.8293 28.046 59.2787 28.2747 58.812 28.732C58.3547 29.1893 58.126 29.8147 58.126 30.608C58.126 31.4013 58.3547 32.0407 58.812 32.526C59.2787 33.002 59.8293 33.24 60.464 33.24C61.0987 33.24 61.6447 33.0067 62.102 32.54ZM60.128 34.626C59.1013 34.626 58.238 34.2527 57.538 33.506C56.838 32.75 56.488 31.7887 56.488 30.622C56.488 29.446 56.8333 28.494 57.524 27.766C58.224 27.0287 59.092 26.66 60.128 26.66C60.7347 26.66 61.2667 26.8 61.724 27.08C62.1907 27.3507 62.55 27.71 62.802 28.158V24.14H64.412V34.5H62.802V33.058C62.5407 33.534 62.1813 33.9167 61.724 34.206C61.2667 34.486 60.7347 34.626 60.128 34.626ZM76.8235 24.756H78.4195V34.5H76.8235L72.0215 27.234V34.5H70.4255V24.756H72.0215L76.8235 32.008V24.756ZM83.6234 34.626C82.5034 34.626 81.5934 34.262 80.8934 33.534C80.1934 32.806 79.8434 31.84 79.8434 30.636C79.8434 29.432 80.1981 28.4707 80.9074 27.752C81.6167 27.024 82.5314 26.66 83.6514 26.66C84.7807 26.66 85.6954 27.01 86.3954 27.71C87.0954 28.4007 87.4454 29.306 87.4454 30.426C87.4454 30.6967 87.4267 30.9487 87.3894 31.182H81.4814C81.5187 31.826 81.7334 32.3393 82.1254 32.722C82.5267 33.0953 83.0261 33.282 83.6234 33.282C84.4914 33.282 85.1027 32.9227 85.4574 32.204H87.1794C86.9461 32.9133 86.5214 33.4967 85.9054 33.954C85.2894 34.402 84.5287 34.626 83.6234 34.626ZM85.7794 30.09C85.7701 29.4553 85.5601 28.9513 85.1494 28.578C84.7387 28.1953 84.2394 28.004 83.6514 28.004C83.0634 28.004 82.5687 28.1953 82.1674 28.578C81.7754 28.9513 81.5514 29.4553 81.4954 30.09H85.7794ZM97.668 26.786H99.236L96.842 34.5H95.162L93.608 28.802L92.054 34.5H90.374L87.966 26.786H89.59L91.2 32.988L92.838 26.786H94.504L96.072 32.96L97.668 26.786Z" fill="white"/>
<rect x="22" y="30.5" width="9" height="1.5" fill="white"/>
<rect x="27.5" y="26.5" width="9" height="1.5" transform="rotate(90 27.5 26.5)" fill="white"/>
<defs>
<filter id="filter0_d_1_1863" x="0" y="0.5" width="181" height="121" filterUnits="userSpaceOnUse" color-interpolation-filters="sRGB">
<feFlood flood-opacity="0" result="BackgroundImageFix"/>
<feColorMatrix in="SourceAlpha" type="matrix" values="0 0 0 0 0 0 0 0 0 0 0 0 0 0 0 0 0 0 127 0" result="hardAlpha"/>
<feOffset dx="30" dy="30"/>
<feGaussianBlur stdDeviation="20"/>
<feColorMatrix type="matrix" values="0 0 0 0 0 0 0 0 0 0 0 0 0 0 0 0 0 0 0.04 0"/>
<feBlend mode="normal" in2="BackgroundImageFix" result="effect1_dropShadow_1_1863"/>
<feBlend mode="normal" in="SourceGraphic" in2="effect1_dropShadow_1_1863" result="shape"/>
</filter>
</defs>
</svg>
