<svg width="494" height="347" viewBox="0 0 494 347" fill="none" xmlns="http://www.w3.org/2000/svg">
<path d="M169 164C215.644 164 257.858 167.971 288.398 174.387C303.673 177.595 316 181.41 324.497 185.63C328.746 187.74 332.011 189.939 334.208 192.194C336.403 194.448 337.5 196.722 337.5 199C337.5 201.278 336.403 203.552 334.208 205.806C332.011 208.061 328.746 210.26 324.497 212.37C316 216.59 303.673 220.405 288.398 223.613C257.858 230.029 215.644 234 169 234C122.356 234 80.1417 230.029 49.6016 223.613C34.3275 220.405 21.9997 216.59 13.5029 212.37C9.25392 210.26 5.98872 208.061 3.79199 205.806C1.59696 203.552 0.5 201.278 0.5 199C0.5 196.722 1.59696 194.448 3.79199 192.194C5.98872 189.939 9.25392 187.74 13.5029 185.63C21.9997 181.41 34.3275 177.595 49.6016 174.387C80.1417 167.971 122.356 164 169 164Z" stroke="#251804"/>
<path d="M169 189C215.644 189 257.858 192.971 288.398 199.387C303.673 202.595 316 206.41 324.497 210.63C328.746 212.74 332.011 214.939 334.208 217.194C336.403 219.448 337.5 221.722 337.5 224C337.5 226.278 336.403 228.552 334.208 230.806C332.011 233.061 328.746 235.26 324.497 237.37C316 241.59 303.673 245.405 288.398 248.613C257.858 255.029 215.644 259 169 259C122.356 259 80.1417 255.029 49.6016 248.613C34.3275 245.405 21.9997 241.59 13.5029 237.37C9.25392 235.26 5.98872 233.061 3.79199 230.806C1.59696 228.552 0.5 226.278 0.5 224C0.5 221.722 1.59696 219.448 3.79199 217.194C5.98872 214.939 9.25392 212.74 13.5029 210.63C21.9997 206.41 34.3275 202.595 49.6016 199.387C80.1417 192.971 122.356 189 169 189Z" stroke="#251804"/>
<path d="M169 214C215.644 214 257.858 217.971 288.398 224.387C303.673 227.595 316 231.41 324.497 235.63C328.746 237.74 332.011 239.939 334.208 242.194C336.403 244.448 337.5 246.722 337.5 249C337.5 251.278 336.403 253.552 334.208 255.806C332.011 258.061 328.746 260.26 324.497 262.37C316 266.59 303.673 270.405 288.398 273.613C257.858 280.029 215.644 284 169 284C122.356 284 80.1417 280.029 49.6016 273.613C34.3275 270.405 21.9997 266.59 13.5029 262.37C9.25392 260.26 5.98872 258.061 3.79199 255.806C1.59696 253.552 0.5 251.278 0.5 249C0.5 246.722 1.59696 244.448 3.79199 242.194C5.98872 239.939 9.25392 237.74 13.5029 235.63C21.9997 231.41 34.3275 227.595 49.6016 224.387C80.1417 217.971 122.356 214 169 214Z" stroke="#251804"/>
<path d="M252.343 67.1289L252.511 68.0342L253.179 67.4004L300.312 22.6758L272.341 81.3232L271.944 82.1543L272.857 82.0342L337.277 73.5547L280.177 104.561L279.367 105L280.177 105.439L337.277 136.444L272.857 127.966L271.944 127.846L272.341 128.677L300.312 187.323L253.179 142.6L252.511 141.966L252.343 142.871L240.5 206.759L228.657 142.871L228.489 141.966L227.821 142.6L180.688 187.323L208.659 128.677L209.056 127.846L208.143 127.966L143.722 136.444L200.823 105.439L201.633 105L200.823 104.561L143.722 73.5547L208.143 82.0342L209.056 82.1543L208.659 81.3232L180.688 22.6758L227.821 67.4004L228.489 68.0342L228.657 67.1289L240.5 3.24023L252.343 67.1289Z" stroke="#251804"/>
<path d="M277 177.5L294.789 222.56L341.11 208.374L316.972 250.377L356.944 277.747L309.055 285.063L312.578 333.379L277 300.5L241.422 333.379L244.945 285.063L197.056 277.747L237.028 250.377L212.89 208.374L259.211 222.56L277 177.5Z" fill="#C3E6B2"/>
<path d="M112.194 269.311L135.134 232.337L158.258 269.311L200.269 289.537L158.258 309.763L135.134 346.736L112.194 309.763L70 289.537L112.194 269.311Z" fill="#B9FF66"/>
<circle cx="152.5" cy="187" r="62" fill="#251804" stroke="#251804"/>
<ellipse cx="132" cy="173.5" rx="10" ry="20" fill="white"/>
<ellipse cx="173" cy="173.5" rx="10" ry="20" fill="white"/>
</svg>
